<svg width="95" height="31" viewBox="0 0 95 31" fill="none" xmlns="http://www.w3.org/2000/svg">
<path d="M12.6328 27H0.5625V0.125H12.2031V5.47656H7.55469V10.5938H11.9297V15.7109H7.55469V21.6484H12.6328V27ZM28.8922 27H22.8375V11.7266C22.8375 11.362 22.8375 11.0885 22.8375 10.9062C22.8375 9.89062 22.7984 9.23958 22.7203 8.95312C22.6422 8.64062 22.3948 8.48438 21.9781 8.48438C21.4833 8.48438 21.1969 8.77083 21.1187 9.34375C21.0406 9.89062 21.0016 10.5286 21.0016 11.2578C21.0016 11.6224 21.0016 11.9089 21.0016 12.1172V27H14.9859V4.96875H21.1578L21.0016 7C21.887 5.51562 23.163 4.77344 24.8297 4.77344C25.4547 4.77344 25.9885 4.83854 26.4312 4.96875C26.9 5.07292 27.3167 5.30729 27.6812 5.67188C28.2281 6.24479 28.5667 6.94792 28.6969 7.78125C28.8271 8.58854 28.8922 9.85156 28.8922 11.5703V27ZM44.9953 24.1875C44.9953 24.9427 44.9693 25.5286 44.9172 25.9453C44.8911 26.3359 44.787 26.7526 44.6047 27.1953C43.5891 29.5911 41.2323 30.7891 37.5344 30.7891C35.2167 30.7891 33.563 30.3464 32.5734 29.4609C31.5839 28.5755 31.0891 27.2344 31.0891 25.4375H36.9094C36.9094 26.401 37.2609 26.8828 37.9641 26.8828C38.4328 26.8828 38.7323 26.7005 38.8625 26.3359C38.9927 25.9453 39.0578 25.3724 39.0578 24.6172V22.9375C38.4589 23.4583 37.925 23.849 37.4562 24.1094C36.9875 24.3438 36.3755 24.4609 35.6203 24.4609C34.787 24.4609 34.0448 24.3177 33.3937 24.0312C32.7427 23.7188 32.2349 23.3021 31.8703 22.7812C31.5318 22.2604 31.3104 21.6745 31.2062 21.0234C31.1281 20.3464 31.0891 19.5 31.0891 18.4844V10.4766C31.0891 8.52344 31.3885 7.11719 31.9875 6.25781C32.6125 5.39844 33.6932 4.96875 35.2297 4.96875C36.0891 4.96875 36.7922 5.09896 37.3391 5.35938C37.912 5.59375 38.4458 6.02344 38.9406 6.64844L39.3703 4.96875H44.9953V24.1875ZM38.9406 17.625V10.7891C38.9406 10.5547 38.9406 10.3854 38.9406 10.2812C38.9406 9.63021 38.8885 9.17448 38.7844 8.91406C38.6802 8.6276 38.4328 8.48438 38.0422 8.48438C37.6776 8.48438 37.4302 8.69271 37.3 9.10938C37.1958 9.52604 37.1437 10.0859 37.1437 10.7891V18.2109C37.1437 19.0964 37.1828 19.7083 37.2609 20.0469C37.3651 20.3854 37.5995 20.5547 37.9641 20.5547C38.6151 20.5547 38.9406 19.5781 38.9406 17.625ZM53.8719 27H47.6219V0.125H53.8719V27ZM63.1781 3.5625H56.6156V0.125H63.1781V3.5625ZM63.1781 27H56.6156V4.96875H63.1781V27ZM78.8125 20.4766C78.8125 22.7943 78.3828 24.4479 77.5234 25.4375C76.5599 26.5573 74.9062 27.1172 72.5625 27.1172C71.2604 27.1172 70.1667 27 69.2812 26.7656C68.3958 26.5312 67.6667 26.1146 67.0938 25.5156C66.5469 24.9167 66.1823 24.2266 66 23.4453C65.8177 22.638 65.7266 21.5964 65.7266 20.3203V19.5781H71.0781V21.6094C71.0781 22.8594 71.4557 23.4844 72.2109 23.4844C72.888 23.4844 73.2266 22.8594 73.2266 21.6094C73.2266 20.6979 73.1224 20.0078 72.9141 19.5391C72.7057 19.0703 72.263 18.6406 71.5859 18.25C70.9349 17.8594 70.2708 17.4557 69.5938 17.0391C68.9167 16.5964 68.3177 16.1797 67.7969 15.7891C67.0156 15.2161 66.4688 14.6432 66.1562 14.0703C65.7656 13.3411 65.5703 12.3255 65.5703 11.0234C65.5703 10.5286 65.5703 10.0339 65.5703 9.53906C65.5964 9.01823 65.7005 8.4974 65.8828 7.97656C66.2474 6.88281 66.9115 6.10156 67.875 5.63281C68.8646 5.16406 70.2057 4.92969 71.8984 4.92969C73.3568 4.92969 74.5547 5.09896 75.4922 5.4375C76.4557 5.77604 77.1849 6.34896 77.6797 7.15625C78.0182 7.65104 78.2135 8.15885 78.2656 8.67969C78.3438 9.20052 78.3828 9.89062 78.3828 10.75V11.6484H72.9531V9.96875C72.9531 8.95312 72.6667 8.44531 72.0938 8.44531C71.3646 8.44531 71 9.09635 71 10.3984C71 11.5703 71.5729 12.4818 72.7188 13.1328L76.3516 15.4375C77.263 16.0365 77.901 16.7135 78.2656 17.4688C78.6302 18.224 78.8125 19.2266 78.8125 20.4766ZM94.9938 27H88.9391V11.4922C88.9391 10.5547 88.913 9.82552 88.8609 9.30469C88.8089 8.78385 88.5354 8.52344 88.0406 8.52344C87.65 8.52344 87.3896 8.73177 87.2594 9.14844C87.1292 9.53906 87.0641 10.2422 87.0641 11.2578V27H81.0484V0.125H87.0641V6.14062C87.5849 5.67188 88.1057 5.35938 88.6266 5.20312C89.1474 5.04688 89.8245 4.96875 90.6578 4.96875C91.5432 4.96875 92.3115 5.11198 92.9625 5.39844C93.6396 5.65885 94.1344 6.08854 94.4469 6.6875C94.6813 7.15625 94.8245 7.80729 94.8766 8.64062C94.9547 9.44792 94.9938 10.5026 94.9938 11.8047V27Z" fill="#18193F"/>
</svg>
